<svg width="924" height="726" viewBox="0 0 924 726" fill="none" xmlns="http://www.w3.org/2000/svg">
<path d="M884.394 712.622H39.6057C25.2079 712.622 13.5352 701.084 13.5352 686.853V647.653C13.5352 644.128 16.4263 641.27 19.9923 641.27H904.009C907.576 641.27 910.467 644.128 910.467 647.653V686.853C910.465 701.084 898.792 712.622 884.394 712.622Z" fill="#FE99A0"/>
<path d="M904.008 641.27H849.867C853.433 641.27 856.324 644.128 856.324 647.653V686.853C856.324 701.084 844.651 712.622 830.254 712.622H884.394C898.792 712.622 910.465 701.084 910.465 686.853V647.653C910.465 644.128 907.574 641.27 904.008 641.27Z" fill="#FD8087"/>
<path d="M830.829 641.27H93.1706C72.6116 641.27 55.9453 624.797 55.9453 604.476V139.362C55.9453 119.041 72.6116 102.568 93.1706 102.568H830.828C851.387 102.568 868.053 119.041 868.053 139.362V604.474C868.055 624.797 851.388 641.27 830.829 641.27V641.27Z" fill="#A79BA7"/>
<path d="M830.83 102.568H776.689C797.248 102.568 813.914 119.041 813.914 139.362V604.474C813.914 624.795 797.248 641.269 776.689 641.269H830.83C851.389 641.269 868.055 624.795 868.055 604.474V139.362C868.055 119.041 851.389 102.568 830.83 102.568V102.568Z" fill="#918291"/>
<path d="M110.086 580.622V163.216C110.086 159.276 113.318 156.081 117.305 156.081H806.695C810.682 156.081 813.914 159.276 813.914 163.216V580.622C813.914 584.562 810.682 587.757 806.695 587.757H117.305C113.318 587.757 110.086 584.562 110.086 580.622Z" fill="#D4F2F6"/>
<path d="M806.695 156.081H752.555C756.541 156.081 759.773 159.276 759.773 163.216V580.622C759.773 584.562 756.541 587.757 752.555 587.757H806.695C810.682 587.757 813.914 584.562 813.914 580.622V163.216C813.914 159.276 810.682 156.081 806.695 156.081Z" fill="#A6E7F0"/>
<path d="M533.724 587.757H165.567V20.5136C165.567 16.5732 168.8 13.3784 172.786 13.3784H526.505C530.491 13.3784 533.724 16.5732 533.724 20.5136V587.757Z" fill="#F5F8F9"/>
<path d="M526.505 13.3784H472.364C476.351 13.3784 479.583 16.5732 479.583 20.5136V587.757H533.724V20.5136C533.724 16.5732 530.491 13.3784 526.505 13.3784Z" fill="#E8EDF2"/>
<path d="M863.733 79.3285C798.988 13.4391 692.453 12.8005 627.01 77.4484C570.482 133.288 563.265 219.4 605.327 283.054C605.917 283.946 606.126 285.033 605.893 286.073L594.551 336.962C593.919 339.795 596.477 342.321 599.344 341.696L650.861 330.492C651.915 330.264 653.014 330.471 653.916 331.052C718.603 372.763 806.203 365.417 862.709 308.98C925.975 245.795 926.447 143.152 863.733 79.3285V79.3285Z" fill="#FFF0AD"/>
<path d="M863.732 79.3285C824.226 39.122 769.163 23.2606 717.367 31.6551C751.252 37.1634 783.752 53.032 809.592 79.3285C872.306 143.152 871.833 245.797 808.568 308.982C782.954 334.563 750.947 350.023 717.583 355.435C768.876 363.764 823.336 348.303 862.709 308.982C925.974 245.795 926.447 143.152 863.732 79.3285V79.3285Z" fill="#FFE177"/>
<path d="M442.356 477.849H262.716C251.868 477.849 243.072 469.157 243.072 458.432V358.953C243.072 348.23 251.866 339.536 262.716 339.536H442.356C453.204 339.536 462 348.229 462 358.953V458.432C462 469.155 453.206 477.849 442.356 477.849Z" fill="#D1F19E"/>
<path d="M904.008 627.892H875.701C879.455 620.896 881.59 612.926 881.59 604.471V308.315C940.405 239.675 937.833 135.535 873.442 70.0064C839.607 35.574 794.254 16.4144 745.735 16.0594C697.243 15.6991 651.7 34.1452 617.441 67.9853C610.76 74.5853 604.679 81.6955 599.174 89.1892H547.259V20.5135C547.259 9.20254 537.948 0 526.505 0H316.098C298.203 0.547622 298.216 26.2145 316.098 26.7568H520.189V574.378H179.103V26.7568H253.351C271.246 26.2091 271.234 0.54227 253.351 0H172.786C161.343 0 152.032 9.20254 152.032 20.5135V89.1892H93.176C65.1835 89.1892 42.4102 111.699 42.4102 139.367V604.471C42.4102 612.926 44.5451 620.896 48.2989 627.892H19.9923C8.96749 627.892 0 636.757 0 647.653V686.853C0 708.439 17.7671 726 39.6057 726H758.664C776.559 725.452 776.546 699.786 758.664 699.243H39.6057C32.6937 699.243 27.0703 693.685 27.0703 686.853V654.649H171.752V663.676C172.306 681.364 198.274 681.352 198.822 663.676V654.649H224.507V663.676C225.061 681.364 251.028 681.352 251.577 663.676V654.649H277.261V663.676C277.815 681.364 303.783 681.352 304.332 663.676V654.649H896.93V686.853C896.93 693.685 891.306 699.243 884.394 699.243H822.521C804.625 699.791 804.638 725.458 822.521 726H884.394C906.233 726 924 708.439 924 686.853V647.653C924 636.757 915.033 627.892 904.008 627.892ZM744.363 42.8108C744.753 42.8108 745.145 42.8126 745.533 42.8144C786.748 43.1176 825.276 59.3946 854.021 88.6487C976.861 220.349 815.347 413.975 661.315 319.852C657.384 317.312 652.51 316.433 647.95 317.426L610.97 325.469L619.109 288.95C620.116 284.435 619.221 279.621 616.656 275.739C577.471 216.437 585.848 137.021 636.576 86.9113C665.394 58.4457 703.63 42.8108 744.363 42.8108V42.8108ZM582.938 115.946C578.702 124.562 575.183 133.511 572.402 142.703H547.259V115.946H582.938ZM547.259 169.459H566.522C560.834 210.224 569.978 252.248 591.826 287.005L581.331 334.087C580.037 339.896 581.806 345.876 586.063 350.085C590.32 354.292 596.37 356.04 602.253 354.764L649.918 344.397C695.546 372.31 750.313 378.123 800.381 362.158V574.378H547.259V169.459ZM123.621 574.378V169.459H152.032V574.378H123.621ZM93.176 627.892C80.1101 627.892 69.4805 617.385 69.4805 604.471V139.367C69.4805 126.452 80.1101 115.946 93.176 115.946H152.032V142.703H117.305C105.861 142.703 96.5508 151.905 96.5508 163.216V580.622C96.5508 591.933 105.861 601.135 117.305 601.135H806.695C818.139 601.135 827.449 591.933 827.449 580.622V350.981C836.888 346.159 845.954 340.478 854.52 333.944V604.471C854.52 617.385 843.89 627.892 830.824 627.892H93.176Z" fill="black"/>
<path d="M450.752 89.1892H235.021C217.126 89.7368 217.138 115.404 235.021 115.946H450.752C468.647 115.398 468.634 89.7315 450.752 89.1892Z" fill="black"/>
<path d="M235.021 172.112H450.752C468.647 171.564 468.634 145.897 450.752 145.355H235.021C217.126 145.903 217.138 171.571 235.021 172.112Z" fill="black"/>
<path d="M235.021 228.28H362.941C380.836 227.732 380.823 202.065 362.941 201.523H235.021C217.126 202.071 217.138 227.737 235.021 228.28Z" fill="black"/>
<path d="M744.47 264.587H744.452C726.56 265.136 726.585 290.805 744.47 291.344C762.361 290.798 762.356 265.131 744.47 264.587Z" fill="black"/>
<path d="M701.697 164.929C709.172 164.929 715.232 158.94 715.232 151.55C715.232 150.196 715.328 148.837 715.515 147.506C717.553 133.063 730.204 122.409 745.044 122.692C760.266 122.995 772.805 134.99 773.594 149.997C774.014 158.009 771.179 165.615 765.61 171.413C760.035 177.215 752.515 180.412 744.434 180.412C736.959 180.412 730.899 186.4 730.899 193.79V227.948C731.453 245.636 757.42 245.623 757.969 227.948V205.519C783.559 199.6 802.485 174.659 800.628 148.611C799.109 119.662 774.931 96.5277 745.589 95.9444C717.138 95.3165 692.639 115.951 688.703 143.814C686.695 154.049 689.568 164.345 701.697 164.929V164.929Z" fill="black"/>
<path d="M262.716 491.227H442.356C460.65 491.227 475.535 476.516 475.535 458.432V358.951C475.535 340.867 460.65 326.156 442.356 326.156H262.716C244.421 326.156 229.536 340.867 229.536 358.951V458.432C229.536 476.516 244.421 491.227 262.716 491.227ZM256.607 358.951C256.607 355.622 259.348 352.913 262.716 352.913H442.356C445.724 352.913 448.465 355.622 448.465 358.951V458.432C448.465 461.761 445.724 464.47 442.356 464.47H262.716C259.348 464.47 256.607 461.761 256.607 458.432V358.951Z" fill="black"/>
</svg>
