<svg width="498" height="499" viewBox="0 0 498 499" fill="none" xmlns="http://www.w3.org/2000/svg">
<path d="M299.496 498.988H466C483.673 498.988 498 484.661 498 466.988V300.484C498 282.811 483.673 268.484 466 268.484H299.496C281.823 268.484 267.496 282.811 267.496 300.484V466.988C267.496 484.661 281.823 498.988 299.496 498.988Z" fill="#97DE3D"/>
<path d="M198.504 268.484H32C14.3269 268.484 0 282.811 0 300.484V466.988C0 484.661 14.3269 498.988 32 498.988H198.504C216.177 498.988 230.504 484.661 230.504 466.988V300.484C230.504 282.811 216.177 268.484 198.504 268.484Z" fill="#6AA9FF"/>
<path d="M299.496 231.496H466C483.673 231.496 498 217.169 498 199.496V32.9921C498 15.319 483.673 0.992096 466 0.992096H299.496C281.823 0.992096 267.496 15.319 267.496 32.9921V199.496C267.496 217.169 281.823 231.496 299.496 231.496Z" fill="#FED843"/>
<path d="M198.504 0.988037H32C14.3269 0.988037 0 15.3149 0 32.988V199.492C0 217.165 14.3269 231.492 32 231.492H198.504C216.177 231.492 230.504 217.165 230.504 199.492V32.988C230.504 15.3149 216.177 0.988037 198.504 0.988037Z" fill="#FF641A"/>
<path d="M370.716 450.24L299.736 382.852L321.764 359.648L369.284 404.76L446.024 322.112L469.476 343.888L370.716 450.24Z" fill="#FFF5F5"/>
<path d="M130.636 304.1H59.256V463.368H130.636C141.404 463.356 151.728 459.074 159.343 451.461C166.958 443.847 171.242 433.524 171.256 422.756V408.356C171.249 399.449 168.296 390.794 162.856 383.74C168.296 376.687 171.249 368.032 171.256 359.124V344.724C171.244 333.954 166.961 323.629 159.346 316.013C151.731 308.397 141.406 304.113 130.636 304.1V304.1ZM91.256 336.1H130.636C132.92 336.103 135.111 337.012 136.726 338.627C138.342 340.242 139.252 342.432 139.256 344.716V359.116C139.253 361.401 138.343 363.591 136.727 365.206C135.112 366.822 132.921 367.73 130.636 367.732H91.256V336.1ZM139.256 422.756C139.252 425.04 138.342 427.229 136.726 428.844C135.11 430.458 132.92 431.366 130.636 431.368H91.256V399.736H130.636C132.921 399.738 135.112 400.647 136.727 402.262C138.343 403.877 139.253 406.067 139.256 408.352V422.756Z" fill="#FFF5F5"/>
<path d="M375.568 68.608H422.744V36.608H375.568C362.624 36.6218 350.214 41.7696 341.061 50.922C331.908 60.0745 326.759 72.484 326.744 85.428V147.056C326.764 159.997 331.915 172.401 341.068 181.549C350.22 190.697 362.627 195.842 375.568 195.856H422.744V163.856H375.568C371.111 163.852 366.838 162.081 363.685 158.932C360.531 155.783 358.754 151.513 358.744 147.056V85.428C358.749 80.968 360.524 76.6923 363.678 73.5389C366.832 70.3856 371.108 68.6123 375.568 68.608V68.608Z" fill="#FFF5F5"/>
<path d="M122.432 36.608H108.076C95.1361 36.6281 82.7323 41.7788 73.5843 50.9305C64.4363 60.0822 59.2908 72.4882 59.276 85.428V179.876H91.276V145.844H139.276V179.876H171.276V85.428C171.261 72.4806 166.11 60.068 156.952 50.915C147.795 41.762 135.379 36.6165 122.432 36.608V36.608ZM91.256 113.844V85.444C91.2655 80.9913 93.0386 76.7237 96.1871 73.5751C99.3357 70.4266 103.603 68.6535 108.056 68.644H122.412C126.869 68.6482 131.142 70.4188 134.295 73.5678C137.449 76.7169 139.225 80.9875 139.236 85.444V113.844H91.256Z" fill="#FFF5F5"/>
</svg>
